<svg width="63" height="67" viewBox="0 0 63 67" fill="none" xmlns="http://www.w3.org/2000/svg">
<mask id="mask0_302_5" style="mask-type:luminance" maskUnits="userSpaceOnUse" x="0" y="0" width="61" height="64">
<path d="M0 0H60.1385V63.8642H0V0Z" fill="white"/>
</mask>
<g mask="url(#mask0_302_5)">
<path d="M41.8466 59.372L37.3635 61.3486C37.2741 61.3874 37.1714 61.3451 37.1283 61.257L33.9441 54.5838C33.4968 53.643 32.5624 53.0899 31.5551 53.1639C30.6141 53.2379 29.6665 53.2414 28.742 53.1709C27.7414 53.0969 26.8037 53.6536 26.3597 54.5908L23.1788 61.257C23.1357 61.3451 23.033 61.3874 22.9436 61.3486L15.7667 58.1846C15.6772 58.1459 15.6309 58.0402 15.6607 57.945L17.8442 50.8385C18.1524 49.8449 17.8608 48.7456 17.102 48.048C16.4029 47.3997 15.7369 46.6879 15.1173 45.9269C14.4579 45.1165 13.4274 44.803 12.4864 45.1306L5.79665 47.456C5.70718 47.4877 5.60778 47.4384 5.57133 47.3468L2.59589 39.7117C2.56276 39.6201 2.5992 39.5109 2.68535 39.4616L8.96096 36.0791C9.84233 35.6 10.3658 34.6064 10.2929 33.5388C10.2234 32.5347 10.2201 31.527 10.2863 30.544C10.3559 29.4799 9.83238 28.4863 8.95433 28.0107L2.68535 24.6283C2.5992 24.5825 2.56276 24.4732 2.59589 24.3816L5.57133 16.7465C5.60778 16.6549 5.70718 16.6056 5.79665 16.6373L12.4798 18.9592C13.4175 19.2833 14.448 18.9733 15.1073 18.17C15.7137 17.4265 16.3863 16.7148 17.102 16.056C17.8608 15.3583 18.1557 14.2591 17.8475 13.2619L15.6607 6.14831C15.6309 6.04965 15.6772 5.94395 15.7667 5.90519L22.9436 2.74475C23.033 2.70599 23.1357 2.74475 23.1788 2.83636L26.363 9.50958C26.8103 10.4468 27.7447 11.0035 28.7487 10.926C29.693 10.8555 30.6406 10.852 31.5651 10.9189C32.5657 10.9929 33.5001 10.4397 33.9474 9.50253L37.1283 2.83636C37.1714 2.74475 37.2741 2.70599 37.3635 2.74475L44.5404 5.90519C44.6299 5.94395 44.6762 6.04965 44.6464 6.14831L42.4596 13.2514C42.1547 14.2485 42.4463 15.3478 43.2051 16.0454C43.9009 16.6902 44.5702 17.4054 45.1898 18.1664C45.8459 18.9768 46.8797 19.2869 47.8207 18.9627L54.5105 16.6373C54.5999 16.6056 54.6993 16.6549 54.7358 16.7465L57.7079 24.3816C57.7443 24.4732 57.7079 24.5825 57.6217 24.6283L51.3461 28.0142C50.4648 28.4899 49.9413 29.487 50.0142 30.5545C50.0837 31.5587 50.087 32.5664 50.0208 33.5459C49.9512 34.6134 50.4747 35.607 51.3528 36.0827L57.6217 39.4616C57.7079 39.5074 57.7443 39.6201 57.7079 39.7117L55.6569 44.9791C55.4183 45.5922 55.6933 46.2969 56.2699 46.5505C56.8497 46.8077 57.5124 46.5153 57.751 45.8987L59.802 40.6348C60.289 39.384 59.7821 37.9254 58.6489 37.3123L52.3799 33.9334C52.3004 33.8876 52.2772 33.7925 52.2805 33.715C52.3534 32.6192 52.3501 31.4988 52.2739 30.3784C52.2706 30.3044 52.2938 30.2057 52.3733 30.1634L58.6489 26.7775C59.7821 26.168 60.289 24.7093 59.802 23.4585L56.8298 15.8234C56.3428 14.5762 55.0141 13.9243 53.8047 14.3471L47.1149 16.669C47.0321 16.7007 46.9526 16.6479 46.9029 16.5915C46.2137 15.7424 45.4715 14.9461 44.6895 14.2273C44.6365 14.178 44.5868 14.0899 44.6166 14.0018L46.8001 6.89526C47.1944 5.60923 46.5848 4.19637 45.4085 3.67844L38.2283 0.517996C37.0554 6.31213e-05 35.6836 0.539136 35.1071 1.74764L31.9262 8.41382C31.8865 8.49838 31.7937 8.51952 31.7208 8.516C30.6936 8.43848 29.6367 8.44201 28.5863 8.52304C28.5167 8.52657 28.4239 8.50543 28.3842 8.42087L25.2 1.74764C24.6235 0.539136 23.2517 6.31213e-05 22.0754 0.517996L14.8986 3.67844C13.7223 4.19637 13.1127 5.60923 13.507 6.89526L15.6938 14.0089C15.7203 14.1005 15.6739 14.1851 15.6176 14.2344C14.8224 14.9672 14.0736 15.76 13.3976 16.588C13.3479 16.6444 13.2684 16.6972 13.1822 16.669L6.5024 14.3471C5.29301 13.9243 3.96433 14.5762 3.47726 15.8234L0.505125 23.4585C0.0180538 24.7093 0.525005 26.168 1.65819 26.7775L7.92717 30.1599C8.00669 30.2022 8.02989 30.3009 8.02326 30.3784C7.95368 31.4741 7.95368 32.5946 8.02989 33.715C8.03651 33.789 8.01332 33.8841 7.9338 33.9299L1.65819 37.3123C0.525005 37.9254 0.0180538 39.384 0.505125 40.6348L3.47726 48.2664C3.96433 49.5172 5.29301 50.169 6.5024 49.7462L13.1922 47.4208C13.275 47.3926 13.3545 47.4455 13.4009 47.5018C14.0901 48.351 14.8356 49.1437 15.6143 49.866C15.6706 49.9153 15.7203 49.9999 15.6905 50.0915L13.507 57.1981C13.1127 58.4841 13.7223 59.897 14.8986 60.4114L22.0754 63.5754C22.3803 63.7092 22.6951 63.7727 23.0065 63.7727C23.9045 63.7727 24.7726 63.2442 25.2 62.3457L28.3809 55.6795C28.4206 55.595 28.5134 55.5738 28.583 55.5774C29.6135 55.6549 30.6704 55.6513 31.7208 55.5703C31.7904 55.5633 31.8832 55.5879 31.9229 55.6725L35.1071 62.3457C35.6836 63.5542 37.0554 64.0933 38.2283 63.5754L42.7147 61.5988C43.2912 61.3451 43.5662 60.6404 43.3277 60.0238C43.0891 59.4108 42.4264 59.1183 41.8466 59.372Z" fill="#13A9D6"/>
</g>
<mask id="mask1_302_5" style="mask-type:luminance" maskUnits="userSpaceOnUse" x="17" y="19" width="46" height="48">
<path d="M17.998 19.2833H63.0008V67H17.998V19.2833Z" fill="white"/>
</mask>
<g mask="url(#mask1_302_5)">
<path d="M59.3855 63.1561C57.5896 65.0693 54.6606 65.0693 52.8614 63.1561L34.5316 43.665C34.3162 43.436 34.0279 43.3091 33.7297 43.3091C33.6336 43.3091 33.5342 43.3232 33.4382 43.3514C29.8696 44.3626 26.0393 43.2739 23.4383 40.508C20.8969 37.8056 19.883 33.9617 20.6517 30.3185L25.6185 35.6C25.8504 35.8467 26.1685 35.9735 26.4966 35.9488L32.3514 35.526C32.9146 35.4873 33.3653 35.0081 33.405 34.4056L33.8026 28.1834C33.8225 27.8346 33.7032 27.4928 33.4713 27.2497L28.5045 21.9682C31.9306 21.1508 35.5455 22.2289 38.0869 24.9313C40.6879 27.6972 41.7118 31.7701 40.7608 35.5648C40.6581 35.9805 40.7707 36.421 41.0557 36.7275L59.3855 56.2187C60.2569 57.1453 60.7374 58.3785 60.7374 59.6892C60.7374 60.9963 60.2569 62.2295 59.3855 63.1561ZM60.9892 54.5169L43.1067 35.4978C43.9814 31.076 42.7058 26.4323 39.6906 23.226C36.0756 19.3821 30.6847 18.237 25.9565 20.3052C25.6052 20.4602 25.3501 20.7879 25.2772 21.1825C25.201 21.5771 25.317 21.9858 25.5854 22.2712L31.5031 28.5639L31.2082 33.1936L26.8577 33.5072L20.9366 27.2145C20.6716 26.9291 20.2872 26.8057 19.9128 26.8868C19.5417 26.9643 19.2336 27.2356 19.0878 27.6091C17.1428 32.6369 18.223 38.3694 21.8346 42.2134C24.8498 45.4161 29.2169 46.7761 33.3785 45.8424L51.261 64.8614C52.6029 66.2849 54.3624 67.0001 56.1251 67.0001C57.8845 67.0001 59.6473 66.2849 60.9892 64.8614C63.6697 62.0075 63.6697 57.3673 60.9892 54.5169Z" fill="#13A9D6"/>
</g>
</svg>
