<svg width="70" height="70" viewBox="0 0 70 70" fill="none" xmlns="http://www.w3.org/2000/svg">
<g id="Clip path group">
<mask id="mask0_22_9219" style="mask-type:luminance" maskUnits="userSpaceOnUse" x="0" y="0" width="70" height="70">
<g id="ao">
<path id="Vector" d="M0 0H70V70H0V0Z" fill="white"/>
</g>
</mask>
<g mask="url(#mask0_22_9219)">
<g id="Group">
<path id="Vector_2" d="M31.4835 15.541C30.5824 15.541 29.8507 14.6908 29.8507 13.6435C29.8507 12.593 30.5824 11.7428 31.4835 11.7428H48.2123V1.91065C48.2123 0.863427 48.9439 0.0098877 49.8479 0.0098877C50.3535 0.0098877 50.8083 0.275798 51.105 0.699284L69.3903 22.9668C69.9891 23.7021 69.9835 24.8544 69.3903 25.5799L51.0259 47.9426C50.4044 48.701 49.3761 48.7305 48.7236 48.0116C48.3874 47.6373 48.2151 47.1383 48.2151 46.6394H48.2123V36.8072H20.1614C19.2603 36.8072 18.5287 35.957 18.5287 34.9065V27.9075L4.05128 45.5396L18.5287 63.175V56.1727C18.5287 55.1255 19.2603 54.272 20.1614 54.272H38.523C39.427 54.272 40.1586 55.1255 40.1586 56.1727C40.1586 57.2232 39.427 58.0735 38.523 58.0735H21.7942V67.9056H21.7914C21.7914 68.4046 21.6219 68.9036 21.2857 69.2778C20.6332 70 19.6021 69.9672 18.9807 69.2122L0.619077 46.8495C0.0230318 46.1207 0.0173817 44.9717 0.619077 44.2363L18.8987 21.9688C19.201 21.5453 19.6502 21.2794 20.1586 21.2794C21.0598 21.2794 21.7914 22.1329 21.7914 23.1802V33.0123H49.8451C50.7462 33.0123 51.4778 33.8625 51.4778 34.913V41.9121L65.9552 24.2799L51.4778 6.64779V13.6468C51.4778 14.694 50.7462 15.5476 49.8451 15.5476H31.4807L31.4835 15.541Z" fill="#13A9D6"/>
</g>
</g>
</g>
</svg>
