<svg width="75" height="85" viewBox="0 0 75 85" fill="none" xmlns="http://www.w3.org/2000/svg">
<g id="Clip path group">
<mask id="mask0_22_9214" style="mask-type:luminance" maskUnits="userSpaceOnUse" x="0" y="0" width="75" height="85">
<g id="ad">
<path id="Vector" d="M0 0H75V85H0V0Z" fill="white"/>
</g>
</mask>
<g mask="url(#mask0_22_9214)">
<g id="Group">
<path id="Vector_2" d="M54.7494 59.7741L49.6412 49.2967C49.6412 49.2967 66.5658 27.1608 66.6146 27.0183C70.3969 27.8208 72.0496 29.7558 72.0496 33.202C72.0496 33.9557 72.6656 34.522 73.3755 34.522C74.0816 34.522 74.6976 33.9107 74.6976 33.202C74.6976 13.661 59.3806 0.0224609 37.4455 0.0224609C15.5104 0.0224609 0.242188 13.661 0.242188 33.202C0.242188 33.9557 0.858173 34.522 1.56806 34.522C2.27419 34.522 2.89017 33.9107 2.89017 33.202C2.89017 29.7558 4.54282 27.8208 8.32512 27.0183C8.37395 27.1608 25.2985 49.2967 25.2985 49.2967L20.1904 59.7741V83.6537C20.1904 84.4075 20.8063 84.9737 21.5162 84.9737H53.4235C54.1822 84.9737 54.7494 84.3625 54.7494 83.6537V59.7741ZM47.4214 47.8305H39.2446C39.2446 47.8305 45.3894 28.1508 45.3894 28.057C46.0956 28.4358 46.7115 29.002 47.1848 29.662C47.9886 30.8883 49.5962 31.2183 50.8244 30.4645C51.1549 30.2733 51.3915 29.992 51.6282 29.662C52.9503 27.5846 56.0715 26.5946 61.3675 26.5946C62.1713 26.5946 62.9262 26.6396 63.6361 26.6883L47.4214 47.8305ZM37.4455 3.13866C43.7819 9.36732 47.5153 17.7222 47.9886 26.5946C45.2467 24.2809 41.04 23.9509 37.4455 23.9509C33.8547 23.9509 29.5992 24.2809 26.9061 26.6396C27.3756 17.7222 31.1128 9.36732 37.4455 3.13866ZM37.4455 26.5946C39.3385 26.5458 41.1827 26.7333 43.0231 27.1608C42.9292 27.2546 37.4455 44.6693 37.4455 44.6693C37.4455 44.6693 31.9617 27.2058 31.8678 27.1121C33.712 26.7333 35.5562 26.5458 37.4455 26.5946ZM71.2007 26.0283C68.0795 23.9021 63.5873 23.9021 61.3675 23.9021C57.6791 23.9021 53.3296 24.2809 50.6366 26.7333C50.2572 17.8609 46.8054 9.41232 40.8484 2.80492C56.6387 3.9374 68.1734 12.9073 71.2007 26.0283ZM3.69396 26.0283C6.71755 12.9073 18.2523 3.9374 33.9937 2.80492C28.0404 9.41232 24.5886 17.8609 24.2093 26.7333C21.5162 24.2809 17.1179 23.9021 13.4784 23.9021C11.3036 23.9021 6.8152 23.9021 3.69396 26.0283ZM13.5272 26.5946C18.8194 26.5946 21.9407 27.5846 23.2628 29.662C24.0666 30.8883 25.6741 31.2183 26.9061 30.4645C27.2366 30.2733 27.4733 29.992 27.7099 29.662C28.1794 29.002 28.7954 28.4358 29.5053 28.057C29.5053 28.1508 35.6501 47.8305 35.6501 47.8305H27.4733L11.2586 26.6396C11.9647 26.5946 12.7234 26.5946 13.5272 26.5946ZM27.6122 50.4742H47.2336L51.2037 58.4504H23.6421L27.6122 50.4742ZM52.0526 82.3337H22.8383V61.0941H52.1014V82.3337H52.0526Z" fill="#13A9D6"/>
</g>
</g>
</g>
</svg>
