<svg width="117" height="113" viewBox="0 0 117 113" fill="none" xmlns="http://www.w3.org/2000/svg">
<g id="Clip path group">
<mask id="mask0_22_9240" style="mask-type:luminance" maskUnits="userSpaceOnUse" x="0" y="0" width="117" height="113">
<g id="aH">
<path id="Vector" d="M0 0H116.057V112.057H0V0Z" fill="white"/>
</g>
</mask>
<g mask="url(#mask0_22_9240)">
<g id="Group">
<path id="Vector_2" d="M29.7654 0L0.0253906 17.7853V49.9291L28.4724 66.9405L29.7654 67.7144L31.0585 66.937L37.8301 62.8864C40.8102 70.0151 47.6559 75 55.6297 75C66.3445 75 75.0254 66.0063 75.0254 54.9105C75.0254 45.1917 68.3615 37.0869 59.5088 35.2219V17.7853L29.7654 0ZM29.7654 3.09203L55.6297 18.5591L43.9889 25.5206L18.128 10.0535L29.7654 3.09203ZM28.4724 63.845L2.61148 48.3814V20.8773L28.4724 36.3444V63.845ZM29.7654 34.0228L3.90453 18.5591L15.5419 11.5977L41.4062 27.0614L29.7654 34.0228ZM31.0585 63.845V36.3444L56.9228 20.8738V34.8873C56.4917 34.8629 56.0641 34.8211 55.6297 34.8211C44.9149 34.8211 36.2307 43.8148 36.2307 54.9105C36.2307 56.786 36.4967 58.5952 36.9647 60.3172L31.0585 63.845ZM72.4393 54.9105C72.4393 64.5247 64.9134 72.3193 55.6297 72.3193C46.3427 72.3193 38.8168 64.5247 38.8168 54.9105C38.8168 45.2963 46.3427 37.5017 55.6297 37.5017C64.9134 37.5017 72.4393 45.2963 72.4393 54.9105Z" fill="#13A9D6"/>
</g>
</g>
</g>
</svg>
