<svg width="80" height="79" viewBox="0 0 80 79" fill="none" xmlns="http://www.w3.org/2000/svg">
<mask id="mask0_302_4" style="mask-type:luminance" maskUnits="userSpaceOnUse" x="0" y="0" width="80" height="64">
<path d="M0 0H80V64H0V0Z" fill="white"/>
</mask>
<g mask="url(#mask0_302_4)">
<path d="M73.3885 48.3741C75.2925 37.8418 77.5009 27.3723 79.4266 16.849C80.0048 13.6772 78.2616 9.6184 74.8926 9.11217C73.4102 8.69106 71.667 10.3217 72.28 11.8763C72.4712 13.1889 73.9188 13.3322 74.8926 13.6682C75.1925 14.5194 75.7403 15.393 75.3925 16.3383C75.1751 17.4672 74.9534 18.5961 74.7361 19.7251H25.1355C24.153 19.7251 23.3575 20.5449 23.3575 21.5529C23.3575 22.5653 24.153 23.3807 25.1355 23.3807H74.0319C72.7016 30.2305 71.3627 37.0802 70.0542 43.9345C69.763 45.3591 69.5587 46.8285 68.9718 48.177C67.9285 48.5936 66.7635 48.3786 65.6767 48.4368C52.7788 48.401 39.8765 48.4323 26.9873 48.4234C23.7096 34.0474 20.4797 19.6668 17.1933 5.2908C16.776 2.57598 14.5242 0.0761888 11.7246 0.179226C8.37733 0.192666 5.02136 0.0313882 1.67842 0.273304C-0.160407 0.922891 -0.160407 3.72284 1.64365 4.43514C5.16916 4.77561 8.72945 4.34106 12.255 4.6457C13.1026 5.07129 12.9462 6.27638 13.2722 7.06485C17.1237 24.1557 21.0101 41.2376 24.9312 58.315C25.4398 61.1015 28.0176 63.3236 30.8172 63.0458C44.5888 63.0279 58.3648 63.0996 72.1278 63.01C74.7578 63.0996 74.7709 58.6331 72.1409 58.6958C59.7907 58.6107 47.4318 58.6734 35.0817 58.66C33.2255 58.6152 31.3432 58.8347 29.5087 58.4539C28.6914 56.6799 28.4741 54.6908 27.9828 52.8092C41.2589 52.8092 54.535 52.8182 67.8111 52.8092C70.389 53.0377 73.0016 51.0262 73.3885 48.3741Z" fill="#13A9D6"/>
</g>
<path d="M36.1192 59.2431C34.4661 59.9894 33.0939 63.1443 32.7745 66.9301C32.2333 72.1475 33.8569 77.8398 36.1665 78.7353C38.562 79.9973 41.1289 75.7637 41.33 70.1528C41.7855 63.6531 38.905 57.6148 36.1192 59.2431ZM38.216 70.7973C37.7546 72.541 36.5746 72.887 35.9891 71.2587C35.1847 69.6304 35.6253 66.3737 36.6249 65.8038C37.8167 64.759 39.0588 68.5041 38.216 70.7973ZM57.4356 59.2227C54.2683 60.3286 52.8222 70.1528 54.9988 75.4787C56.9624 81.171 61.4043 79.407 62.3714 72.4528C63.646 65.5324 60.6206 57.3841 57.4356 59.2227ZM59.0828 71.7268C57.5983 74.3728 55.8682 68.3345 57.5036 66.2313C58.9882 63.5717 60.7271 69.6168 59.0828 71.7268Z" fill="#13A9D6"/>
</svg>
