<svg width="65" height="75" viewBox="0 0 65 75" fill="none" xmlns="http://www.w3.org/2000/svg">
<g id="Clip path group">
<mask id="mask0_22_9209" style="mask-type:luminance" maskUnits="userSpaceOnUse" x="0" y="0" width="65" height="75">
<g id="t">
<path id="Vector" d="M0 0H65V75H0V0Z" fill="white"/>
</g>
</mask>
<g mask="url(#mask0_22_9209)">
<g id="Group">
<path id="Vector_2" d="M61.3605 8.23999H47.4749L40.1587 1.76888C40.039 1.6657 39.9235 1.58463 39.808 1.50355C38.6484 0.648599 36.841 0.0368652 35.4133 0.0368652H3.63954C1.6382 0.0368652 0 1.4925 0 3.27242V63.5577C0 65.3376 1.6382 66.7932 3.63954 66.7932H7.79901V71.7608C7.79901 73.5407 9.43721 74.9963 11.4427 74.9963H61.3605C63.3618 74.9963 65 73.5407 65 71.7608V11.4645C65 9.68457 63.3618 8.23999 61.3605 8.23999ZM39.0528 4.49589L52.1296 16.0414H39.7296C39.3499 16.0414 39.0404 15.765 39.0404 15.4297V4.49589H39.0528ZM2.95042 63.5577V3.27242C2.95042 2.93707 3.26403 2.66069 3.63954 2.66069H35.4133C35.632 2.66069 35.8796 2.69385 36.1395 2.75281C36.1148 2.91496 36.1024 3.08816 36.1024 3.26136V15.4186C36.1024 17.1986 37.7406 18.6542 39.7419 18.6542H53.5615C53.7678 18.6542 53.9617 18.6395 54.1309 18.6173C54.1969 18.8495 54.2382 19.0706 54.2382 19.2659V63.5466C54.2382 63.8819 53.9246 64.1583 53.5491 64.1583H3.63954C3.26403 64.1694 2.95042 63.893 2.95042 63.5577ZM62.0496 71.7608C62.0496 72.0961 61.736 72.3762 61.3605 72.3762H11.4427C11.063 72.3762 10.7536 72.0961 10.7536 71.7608V66.7932H53.5615C55.5628 66.7932 57.201 65.3376 57.201 63.5577V19.277C57.201 18.0056 56.5119 16.421 55.5504 15.3929C55.4596 15.2897 55.3523 15.1865 55.2244 15.0722L50.4542 10.8638H61.3605C61.736 10.8638 62.0496 11.1402 62.0496 11.4755V71.7608ZM45.9688 28.464H11.2322C10.5307 28.464 9.97365 27.9555 9.97365 27.3438C9.97365 26.7283 10.5431 26.2235 11.2322 26.2235H45.9688C46.6703 26.2235 47.2315 26.7283 47.2315 27.3438C47.2315 27.9555 46.6703 28.464 45.9688 28.464ZM45.9688 36.6672H11.2322C10.5307 36.6672 9.97365 36.1586 9.97365 35.5469C9.97365 34.9352 10.5431 34.4266 11.2322 34.4266H45.9688C46.6703 34.4266 47.2315 34.9352 47.2315 35.5469C47.2315 36.1586 46.6703 36.6672 45.9688 36.6672ZM45.9688 44.8592H11.2322C10.5307 44.8592 9.97365 44.3507 9.97365 43.739C9.97365 43.1272 10.5431 42.6187 11.2322 42.6187H45.9688C46.6703 42.6187 47.2315 43.1272 47.2315 43.739C47.2315 44.3507 46.6703 44.8592 45.9688 44.8592ZM26.1287 53.0661H11.2322C10.5307 53.0661 9.97365 52.5575 9.97365 51.9458C9.97365 51.3193 10.5431 50.8218 11.2322 50.8218H26.1287C26.8344 50.8218 27.3914 51.3304 27.3914 51.9458C27.3914 52.5575 26.8344 53.0661 26.1287 53.0661Z" fill="#13A9D6"/>
</g>
</g>
</g>
</svg>
